<svg
        width="645"
        height="145"
        viewBox="0 0 645 145"
        fill="none"
        xmlns="http://www.w3.org/2000/svg"
>
    <rect
            width="532"
            height="17"
            transform="translate(68 128)"
            fill="#FAFAFA"
    />
    <path
            d="M73.7137 131.818H75.2449V139.037C75.2449 139.69 75.1157 140.248 74.8572 140.712C74.6019 141.176 74.2423 141.531 73.7783 141.776C73.3143 142.018 72.7707 142.139 72.1476 142.139C71.5742 142.139 71.0589 142.035 70.6015 141.826C70.1474 141.617 69.7878 141.314 69.5226 140.916C69.2608 140.515 69.1299 140.028 69.1299 139.455H70.6562C70.6562 139.736 70.7208 139.98 70.8501 140.185C70.9826 140.391 71.1633 140.552 71.392 140.668C71.624 140.78 71.8891 140.837 72.1874 140.837C72.5122 140.837 72.7873 140.769 73.0127 140.633C73.2414 140.494 73.4154 140.29 73.5347 140.021C73.654 139.753 73.7137 139.425 73.7137 139.037V131.818Z"
            fill="#969696"
    />
    <path
            d="M131.517 142V131.818H137.831V133.141H133.053V136.243H137.379V137.56H133.053V142H131.517Z"
            fill="#969696"
    />
    <path
            d="M194.336 131.818H196.201L199.442 139.733H199.562L202.803 131.818H204.667V142H203.206V134.632H203.111L200.108 141.985H198.895L195.892 134.627H195.798V142H194.336V131.818Z"
            fill="#969696"
    />
    <path
            d="M262.077 142H260.447L264.111 131.818H265.886L269.55 142H267.919L265.04 133.668H264.961L262.077 142ZM262.351 138.013H267.641V139.305H262.351V138.013Z"
            fill="#969696"
    />
    <path
            d="M325.336 131.818H327.201L330.442 139.733H330.562L333.803 131.818H335.667V142H334.206V134.632H334.111L331.108 141.985H329.895L326.892 134.627H326.798V142H325.336V131.818Z"
            fill="#969696"
    />
    <path
            d="M395.714 131.818H397.245V139.037C397.245 139.69 397.116 140.248 396.857 140.712C396.602 141.176 396.242 141.531 395.778 141.776C395.314 142.018 394.771 142.139 394.148 142.139C393.574 142.139 393.059 142.035 392.601 141.826C392.147 141.617 391.788 141.314 391.523 140.916C391.261 140.515 391.13 140.028 391.13 139.455H392.656C392.656 139.736 392.721 139.98 392.85 140.185C392.983 140.391 393.163 140.552 393.392 140.668C393.624 140.78 393.889 140.837 394.187 140.837C394.512 140.837 394.787 140.769 395.013 140.633C395.241 140.494 395.415 140.29 395.535 140.021C395.654 139.753 395.714 139.425 395.714 139.037V131.818Z"
            fill="#969696"
    />
    <path
            d="M456.714 131.818H458.245V139.037C458.245 139.69 458.116 140.248 457.857 140.712C457.602 141.176 457.242 141.531 456.778 141.776C456.314 142.018 455.771 142.139 455.148 142.139C454.574 142.139 454.059 142.035 453.601 141.826C453.147 141.617 452.788 141.314 452.523 140.916C452.261 140.515 452.13 140.028 452.13 139.455H453.656C453.656 139.736 453.721 139.98 453.85 140.185C453.983 140.391 454.163 140.552 454.392 140.668C454.624 140.78 454.889 140.837 455.187 140.837C455.512 140.837 455.787 140.769 456.013 140.633C456.241 140.494 456.415 140.29 456.535 140.021C456.654 139.753 456.714 139.425 456.714 139.037V131.818Z"
            fill="#969696"
    />
    <path
            d="M515.077 142H513.447L517.111 131.818H518.886L522.55 142H520.919L518.04 133.668H517.961L515.077 142ZM515.351 138.013H520.641V139.305H515.351V138.013Z"
            fill="#969696"
    />
    <path
            d="M584.167 134.493C584.114 134.022 583.895 133.658 583.511 133.399C583.126 133.137 582.642 133.006 582.059 133.006C581.641 133.006 581.28 133.073 580.975 133.205C580.67 133.335 580.433 133.513 580.264 133.742C580.099 133.968 580.016 134.224 580.016 134.513C580.016 134.755 580.072 134.964 580.185 135.139C580.301 135.315 580.452 135.462 580.637 135.582C580.826 135.698 581.028 135.795 581.244 135.875C581.459 135.951 581.666 136.014 581.865 136.064L582.859 136.322C583.184 136.402 583.517 136.51 583.859 136.646C584.2 136.781 584.517 136.96 584.808 137.183C585.1 137.405 585.335 137.68 585.514 138.008C585.697 138.336 585.788 138.729 585.788 139.186C585.788 139.763 585.639 140.275 585.34 140.722C585.045 141.17 584.616 141.523 584.053 141.781C583.493 142.04 582.815 142.169 582.019 142.169C581.257 142.169 580.597 142.048 580.041 141.806C579.484 141.564 579.048 141.221 578.733 140.777C578.418 140.33 578.244 139.799 578.211 139.186H579.752C579.782 139.554 579.901 139.861 580.11 140.106C580.322 140.348 580.592 140.528 580.921 140.648C581.252 140.764 581.615 140.822 582.009 140.822C582.444 140.822 582.83 140.754 583.168 140.618C583.509 140.479 583.778 140.286 583.973 140.041C584.169 139.793 584.266 139.503 584.266 139.171C584.266 138.87 584.18 138.623 584.008 138.43C583.839 138.238 583.609 138.079 583.317 137.953C583.028 137.827 582.702 137.716 582.337 137.62L581.134 137.292C580.319 137.07 579.673 136.743 579.195 136.312C578.721 135.882 578.484 135.312 578.484 134.602C578.484 134.016 578.644 133.504 578.962 133.066C579.28 132.629 579.711 132.289 580.254 132.047C580.798 131.802 581.411 131.679 582.094 131.679C582.783 131.679 583.391 131.8 583.918 132.042C584.449 132.284 584.866 132.617 585.171 133.041C585.476 133.462 585.635 133.946 585.649 134.493H584.167Z"
            fill="#969696"
    />
    <path d="M0 118.5H644.232" stroke="#858585" stroke-dasharray="2 2" />
    <rect x="49" y="42" width="22" height="76" fill="#D9D9D9" />
    <rect x="71" y="8" width="22" height="110" fill="#969696" />
    <rect x="112" y="68" width="22" height="50" fill="#D9D9D9" />
    <rect x="134" width="22" height="118" fill="#969696" />
    <rect x="175" y="49" width="22" height="69" fill="#D9D9D9" />
    <rect x="197" y="13" width="22" height="105" fill="#969696" />
    <rect x="238" y="42" width="22" height="76" fill="#D9D9D9" />
    <rect x="260" y="8" width="22" height="110" fill="#969696" />
    <rect x="301" y="68" width="21.5" height="50" fill="#D9D9D9" />
    <rect x="322.5" width="21.5" height="118" fill="#969696" />
    <rect x="363" y="49" width="22" height="69" fill="#D9D9D9" />
    <rect x="385" y="13" width="22" height="105" fill="#969696" />
    <rect x="426" y="42" width="22" height="76" fill="#D9D9D9" />
    <rect x="448" y="8" width="22" height="110" fill="#969696" />
    <rect x="489" y="68" width="22" height="50" fill="#D9D9D9" />
    <rect x="511" width="22" height="118" fill="#969696" />
    <rect x="552" y="49" width="22" height="69" fill="#D9D9D9" />
    <rect x="574" y="13" width="22" height="105" fill="#969696" />
</svg>
