<svg xmlns:xlink="http://www.w3.org/1999/xlink" xmlns="http://www.w3.org/2000/svg" width="163" height="64" viewBox="0 0 163 64" fill="none">
    <g clip-path="url(#clip0)">
        <path d="M126.184 50.5582V27.0614H120.473V50.5582H13.5108V13.4422H17.6656V8.42108H8.4209V55.579H126.193V50.5582H126.184Z" fill="white"></path>
        <path d="M120.594 20.846H126.305V25.6309H120.594V20.846Z" fill="white"></path>
        <path d="M42.3555 20.846H48.0666V25.6309H42.3555V20.846Z" fill="white"></path>
        <path d="M126.184 50.5582V27.0614H120.473V50.5582H13.5108V13.4422H17.6656V8.42108H8.4209V55.579H126.193V50.5582H126.184Z" fill="white"></path>
        <path d="M20.1969 8.42145V8.42392H20.1465V42.3564H22.7316V42.3568H39.9274V36.4422H26.634V13.4426H149.272V50.5586H128.671V55.5783H154.362V8.42145H20.1969Z" fill="white"></path>
        <path d="M47.9158 27.0617V42.5433H42.2773V27.0617H47.9158Z" fill="white"></path>
        <path d="M63.0158 30.4041H74.2057C74.2057 31.5542 74.1574 32.6 74.0608 33.5396C73.9642 34.4793 73.7738 35.3523 73.4858 36.1579C73.0835 37.2893 72.5366 38.2907 71.8463 39.1637C71.1559 40.0363 70.346 40.7644 69.4159 41.35C68.4854 41.9346 67.464 42.381 66.3527 42.6867C65.2399 42.9938 64.0697 43.1478 62.8431 43.1478C61.1553 43.1478 59.6162 42.869 58.226 42.3126C56.8358 41.7576 55.6412 40.9759 54.6452 39.9693C53.6477 38.9627 52.8717 37.7533 52.3153 36.3444C51.7589 34.9355 51.4814 33.3778 51.4814 31.6699C51.4814 29.9835 51.7536 28.4335 52.3005 27.0246C52.8474 25.6157 53.6237 24.412 54.6304 23.4145C55.637 22.4185 56.8502 21.641 58.2687 21.0847C59.6885 20.5283 61.2702 20.2508 63.0158 20.2508C65.2773 20.2508 67.2627 20.7402 68.9695 21.7175C70.676 22.6963 72.0289 24.211 73.026 26.262L67.6756 28.478C67.177 27.2887 66.5293 26.4347 65.7332 25.9175C64.9381 25.3999 64.032 25.1415 63.0158 25.1415C62.1714 25.1415 61.4045 25.2998 60.7142 25.616C60.0238 25.9323 59.4339 26.3829 58.946 26.9675C58.4566 27.5535 58.0733 28.2572 57.7944 29.0816C57.517 29.9059 57.3777 30.8269 57.3777 31.8434C57.3777 32.7643 57.4969 33.6168 57.737 34.4038C57.9771 35.1894 58.3364 35.8705 58.8162 36.4456C59.2947 37.0207 59.8902 37.467 60.5992 37.7837C61.3083 38.0999 62.1344 38.2582 63.074 38.2582C63.629 38.2582 64.1667 38.1965 64.6839 38.0707C65.2015 37.9473 65.6665 37.7449 66.0794 37.4674C66.4909 37.1899 66.8315 36.8292 67.1009 36.3881C67.3688 35.9471 67.5515 35.4108 67.6467 34.7782H63.0162V30.4041H63.0158Z" fill="white"></path>
        <path d="M83.411 29.2246H91.551V20.8553H97.1881V42.5434H91.551V33.5977H83.411V42.5434H77.7725V20.8553H83.411V29.2246Z" fill="white"></path>
        <path d="M109.96 25.6293V42.5434H104.322V25.6293H99.6914V20.8553H114.591V25.6293H109.96Z" fill="white"></path>
        <path d="M140.232 25.6293V42.5434H134.593V25.6293H129.963V20.8553H144.862V25.6293H140.232Z" fill="white"></path>
    </g>
    <defs>
        <clipPath id="clip0">
            <rect width="145.941" height="47.1579" fill="white" transform="translate(8.4209 8.42108)"></rect>
        </clipPath>
    </defs>
</svg>
